<?xml version="1.0" encoding="utf-8"?>
<!-- Generator: Adobe Illustrator 21.0.0, SVG Export Plug-In . SVG Version: 6.00 Build 0)  -->
<svg version="1.1" id="Layer_1" xmlns="http://www.w3.org/2000/svg" xmlns:xlink="http://www.w3.org/1999/xlink" x="0px" y="0px"
	 viewBox="0 0 1024 314.7" style="enable-background:new 0 0 1024 314.7;" xml:space="preserve">
<style type="text/css">
	.st0{fill:#FFFFFF;}
</style>
<g>
	<g>
		<path class="st0" d="M141.7,153.7c0,0-66.1-56.9-5.9-153.7c0,0,97,66.9,18.6,151.2c0,0-12.8-56.5-8.4-82.1
			C146,69,131,126.2,141.7,153.7z"/>
		<path class="st0" d="M119.9,162.3c0,0-74.1,23.4-119.2-67.5c0,0,96.1-42.1,123.2,56.7c0,0-48.8-16.8-66.1-32.1
			C57.7,119.4,94,157.5,119.9,162.3z"/>
		<path class="st0" d="M107.1,186.2c0,0-23.7,44.4-85.7,22.8c0,0,25.3-63,82.7-29.6c0,0-30.2,14.4-45.1,15.1
			C58.9,194.5,92.9,195.7,107.1,186.2z"/>
		<path class="st0" d="M196.2,183.1c0,0,28.6-20.8,61.1,12c0,0-35.4,32-61.3-6.7c0,0,23.5,0.2,33.1,4.3
			C229.2,192.7,208.1,181.5,196.2,183.1z"/>
		<path class="st0" d="M163.6,162.1c0,0,8-76.2,107.9-81.1c0,0,0.2,103.4-99.7,88.9c0,0,34.3-37.5,55-47.1
			C226.8,122.9,178.1,140.7,163.6,162.1z"/>
		<path class="st0" d="M175.5,293.4c0,0-12.1-49.1-3.3-78.6c8.8-29.6,21.7-35.7,20.5-40.2c-1.1-4.5-7.6-2.5-9.8,1.7
			c-2.2,4.2-10.8,13.1-18.5,11.6c-7.7-1.5-9.1-29.8-14.7-32.6c-5.6-2.9-4,10.2-2,21.5c1.9,11.3-8.8,4.9-15.2-8.7
			c-6.4-13.6-10.5-9.7-11.3-7.8c-0.8,1.9,14.2,26.2,13.1,27.4C133,188.7,114,168.5,112,169c-1.9,0.5-5.2,2.1-0.7,8.5
			c4.5,6.4,18.9,17.1,18,18.9c-1,1.8-12.9-8-17.3-8.3c-4.4-0.3-2.8,5.3,5.1,10.4c7.8,5.1,27.1,10.8,27.3,29.9
			c0.1,19.1-5.1,65.2-5.1,65.2"/>
	</g>
	<path class="st0" d="M437.3,189.5l13.2,10l-8.1,10.3c5.6,6.3,7.6,13.5,7.6,21.5c0,9-3.4,21.6-15.3,27.1c12.1,6,15,14.7,15,24
		c0,20-15.3,32.4-36.3,32.4c-21,0-36.8-12.8-36.8-32.4h17.8c0,9.4,8.7,15.6,19,15.6c10.3,0,18.4-5.6,18.4-15.6
		c0-10-9.4-14.6-18.4-14.6c-22.7,0-36.8-13.8-36.8-36.5c0-22.7,16.5-36.8,36.8-36.8c5.7,0,11.6,0.7,16.6,4.1L437.3,189.5z
		 M394.5,231.3c0,12.7,8.5,20.2,19,20.2c10.3,0,18.8-7.6,18.8-20.2c0-12.5-8.5-20.4-18.8-20.4C403.1,210.8,394.5,218.6,394.5,231.3z
		"/>
	<path class="st0" d="M519.1,196.8h17.2v72.5h-16.9l-0.9-10.6c-4.1,8.5-15.5,12.7-23.5,12.8c-21.5,0.2-37.4-13.1-37.4-38.6
		c0-25,16.6-38.1,37.8-38c9.7,0,19,4.6,23.1,11.8L519.1,196.8z M475.6,233c0,13.8,9.6,22.1,21.5,22.1c28.2,0,28.2-44,0-44
		C485.2,211.1,475.6,219.2,475.6,233z"/>
	<path class="st0" d="M568.1,196.8l1.3,8.4c5.6-9,13.1-10.3,20.5-10.3c7.5,0,14.7,2.9,18.7,6.9l-8.1,15.6c-3.7-3.1-7.1-4.7-13-4.7
		c-9.4,0-18.1,5-18.1,18.4v38.3h-18v-72.5H568.1z"/>
	<path class="st0" d="M693.5,164.5v104.9h-19.6l-0.5-10c-5.6,8.7-15.3,11.6-24.1,11.6c-21.3,0-37.4-14.1-37.4-38
		c0-25,15.7-38,36.9-38c7.6,0,20.3,4.1,24.5,11.6v-42.2H693.5z M629.9,233c0,12.7,9.1,21.3,20.6,21.3c11.3,0,21-8.2,21-21.3
		c0-12.7-9.7-21.2-21-21.2C639,211.9,629.9,219.9,629.9,233z"/>
	<path class="st0" d="M723.2,239.5c1.2,9,9,15.5,21.6,15.5c6.6,0,15.3-2.5,19.4-6.8l11.5,11.3c-7.6,7.9-20.2,11.8-31.2,11.8
		c-25,0-39.9-15.5-39.9-38.7c0-22.1,15-38,38.6-38c24.3,0,39.4,15,36.6,44.9H723.2z M762.6,224.7c-1.2-9.4-8.5-14.1-18.8-14.1
		c-9.7,0-17.7,4.7-20.3,14.1H762.6z"/>
	<path class="st0" d="M847.1,269.4v-38c0-11-6-19.4-17.5-19.4c-11,0-18.5,9.3-18.5,20.3v37.1h-17.8v-72.7h16l1.2,9.9
		c7.4-7.2,14.7-10.9,23.8-10.9c17.1,0,30.8,12.8,30.8,35.6v38.1H847.1z"/>
	<path class="st0" d="M895.8,239.5c1.2,9,9,15.5,21.6,15.5c6.6,0,15.3-2.5,19.4-6.8l11.5,11.3c-7.6,7.9-20.2,11.8-31.2,11.8
		c-25,0-39.9-15.5-39.9-38.7c0-22.1,15-38,38.5-38c24.3,0,39.4,15,36.6,44.9H895.8z M935.2,224.7c-1.2-9.4-8.5-14.1-18.8-14.1
		c-9.7,0-17.7,4.7-20.3,14.1H935.2z"/>
	<path class="st0" d="M982.9,196.8l1.3,8.4c5.6-9,13.1-10.3,20.5-10.3c7.5,0,14.7,2.9,18.7,6.9l-8.1,15.6c-3.7-3.1-7.1-4.7-13-4.7
		c-9.4,0-18.1,5-18.1,18.4v38.3h-17.9v-72.5H982.9z"/>
	<path class="st0" d="M350.1,79.7l13.2,10l-8.1,10.3c5.6,6.3,7.7,13.5,7.6,21.5c0,9-3.4,21.6-15.3,27.1c12.1,6,15,14.7,15,24
		c0,20-15.3,32.4-36.3,32.4c-21,0-36.8-12.8-36.8-32.4l17.8,0c0,9.4,8.7,15.6,19,15.6c10.3,0,18.4-5.6,18.4-15.6
		c0-10-9.4-14.6-18.4-14.6c-22.7,0-36.8-13.8-36.8-36.5c0-22.7,16.5-36.8,36.8-36.8c5.7,0,11.6,0.7,16.6,4.1L350.1,79.7z
		 M307.3,121.5c0,12.7,8.5,20.2,19,20.2c10.3,0,18.8-7.6,18.8-20.2c0-12.5-8.5-20.4-18.8-20.5C315.8,101,307.3,108.8,307.3,121.5z"
		/>
	<path class="st0" d="M391,87.1l1.3,8.4c5.6-9,13.1-10.3,20.5-10.3c7.5,0,14.7,3,18.7,6.9l-8.1,15.6c-3.7-3.1-7.1-4.7-13-4.7
		c-9.4,0-18.1,5-18.1,18.4l0,38.3h-18l0-72.5H391z"/>
	<path class="st0" d="M495.8,87.1l17.2,0l0,72.5l-16.9,0l-0.9-10.6c-4.1,8.5-15.4,12.6-23.6,12.8c-21.5,0.1-37.4-13.1-37.4-38.6
		c0-25,16.6-38.1,37.8-38c9.7,0,19,4.6,23.1,11.8L495.8,87.1z M452.2,123.3c0,13.8,9.6,22.1,21.5,22.1c28.3,0,28.3-44,0-44
		C461.8,101.3,452.2,109.4,452.2,123.3z"/>
	<path class="st0" d="M544.6,56.8l0,40.2c4.3-7.5,16.2-11.6,23.8-11.6c21.2,0,36.9,13,36.9,38c0,23.8-16,38-37.4,37.9
		c-8.8,0-17.8-2.9-23.4-11.6l-1.2,10l-16.8,0l0-102.9L544.6,56.8z M545.8,123.3c0,13.1,9.7,21.3,21,21.3c11.5,0,20.6-8.7,20.6-21.3
		c0-13.1-9.1-21.2-20.6-21.2C555.5,102.1,545.8,110.6,545.8,123.3z"/>
	<path class="st0" d="M673.4,84.8h20.1v73.6h-20.1v-6.7c-4.1,8.5-13.2,10.1-21.3,10.2c-21.5,0.1-37.4-13.1-37.4-38.6
		c0-25,16.6-38.1,37.8-38c9.7,0,16.7,5.6,20.8,12.8V84.8z M632.7,123.3c0,13.8,9.6,22.1,21.5,22.1c28.3,0,28.3-44,0-44
		C642.3,101.4,632.7,109.5,632.7,123.3z"/>
	<path class="st0" d="M226,303.8c0,0-87.7-12.2-140.6,4.3C85.3,308.1,144.4,274.6,226,303.8z"/>
</g>
</svg>
